<svg width="258" height="240" viewBox="0 0 258 240" fill="none" xmlns="http://www.w3.org/2000/svg">
<rect width="258" height="240" fill="white"/>
<g clip-path="url(#clip0_5_25)">
<g filter="url(#filter0_d_5_25)">
<path d="M12.1224 100.692C13.9829 98.3234 15.0607 97.0465 17.0768 94.9106C19.0928 92.7747 24.6263 87.3174 24.6263 87.3174L31.3108 81.4499L39.5681 75.8413L51.7575 67.1263L62.6886 59.0154L74.4847 52.285L87.146 45.1232L100.043 38.6518L115.142 31.5763L125.366 26.4853L132.994 23.379L140.386 20.7041L150.216 16.9938L160.675 13.1972L170.82 10.9538L182.774 8.53773L194.412 6.46685L200.5 5.5177L207 4.5L212.5 5.5177H224.611L227.284 6.03542L228.543 7.15715L229.329 8.02001H231.295L234.048 8.53773L235.542 9.83203L236.092 11.7303V13.2835L235.542 15.2681L236.092 17.2527L235.542 18.2881L236.564 19.4098V20.7041L237.193 21.3081L237.744 22.775L236.092 23.8967L237.193 25.0185V29.5054L236.092 32.5254L236.564 35.8043L236.092 39.0832L236.564 41.8444L235.542 45.7273L236.564 49.9553L234.913 52.1987L235.542 54.5285L234.913 55.8228L236.092 56.9445L235.542 58.7565L234.913 62.8983L233.261 65.4006L230.43 67.4715L228.779 70.5778L226.498 72.3898V75.4098L228.071 77.3081L228.779 79.2065L227.52 80.9322L224.375 84.8151L224.925 86.6271L227.048 85.8505L231.767 84.8151L236.564 83.6071L239.316 84.3836L240.182 85.8505L240.811 87.0585L241.99 87.7488H244.664H248.203L251.584 87.0585L250.248 91.3729L251.978 93.7889L250.798 95.5146L248.596 96.6363L250.248 98.2758L251.978 103.626L250.798 105.955L252.528 110.356L253 115.619L249.697 119.33L244.664 122.005L243.249 125.283V127.872L243.799 129.943L245.765 131.755L247.181 135.034L244.664 137.968L242.462 143.404L244.271 146.596L243.249 151.342L241.282 153.586L237.744 156.26L234.441 159.626V164.026L236.564 170.411L237.98 171.274L239.238 173.345L238.687 176.02L237.744 180.248L233.812 184.045L226.183 187.841L220.443 191.12L213.129 195.176L199.603 201.561L173.887 211.139L146.52 220.889L126.152 227.792L122.22 229H117.816L114.12 227.792L110.581 228.396H107.829L106.964 227.792L105.391 226.066L101.616 225.376L99.8858 224.772V222.787L98.4703 220.199H94.8528L90.7635 221.579L84.2362 223.995L80.3042 224.772L79.7537 222.787L78.1022 221.579H76.1362L74.9566 220.199H72.5974H70.2381L69.2158 218.559L70.2381 216.143V213.555L69.2158 211.311L65.7556 208.981L63.9468 205.185V201.992L62.6886 200.267V198.541L63.9468 195.262L62.6886 193.364L60.4866 192.673L58.1274 189.912L55.4536 187.151L53.8021 186.633L52.072 187.151L47.9041 184.649L44.0506 186.633L37.2875 189.136H35.4788V187.928V186.633L34.0632 186.116H32.2545H30.603V184.649L28.7943 183.527H26.0418L24.8622 184.649L22.9748 183.527L22.4243 181.025L22.9748 178.35L23.6826 176.193V173.949H21.9525L20.3797 174.553V172.569L21.0875 170.411H19.2787H16.9981V168.168L19.2787 166.097L20.3797 164.371L21.9525 162.646L20.3797 160.92L21.9525 158.935L22.4243 156.347L21.0875 155.052L20.3797 152.291L21.9525 149.875V146.941L20.3797 145.906L17.7845 144.008L16.9981 141.16L17.7845 137.45L17.0768 134.948L13.4593 134.43L11.4146 132.704L9.92042 130.029V128.735L8.89808 127.958L9.60585 127.613V126.578L9.21265 125.887L9.44857 125.111L8.42624 125.283H7.71847L7.32526 124.421L7.56118 123.817L7.95439 122.695L7.32526 122.263H6.067L5.83108 121.487L5.6738 120.193V119.071H4.41554L3.55049 119.589L3 119.071L3.55049 117.949V117.518V116.827L3.86505 116.482V116.137L4.25826 115.361L4.65146 114.757V114.066V113.031L5.12331 112.686V111.823V111.478H5.51651L5.6738 110.874L5.83108 110.356L6.067 110.097L6.22428 109.666L6.46021 109.407H7.08934V108.975L7.4039 108.371L7.79711 108.112L7.87575 107.854L8.26895 107.681H8.50488L8.58352 107.163L8.81944 106.818V106.214L9.05536 105.783L9.21265 105.265L9.36993 104.661V104.23L9.44857 103.539L9.52721 103.194L9.76313 102.935L10.0777 102.849L10.235 102.59L10.4709 102.331L10.7068 101.727L10.8641 101.382L10.9427 101.296L11.336 101.21H11.6505L11.7292 100.778L12.1224 100.692Z" fill="url(#paint0_linear_5_25)" shape-rendering="crispEdges"/>
</g>
<path d="M106.799 183.006C107.024 183.011 107.317 183.015 107.68 183.018C108.043 183.02 108.4 183.018 108.752 183.01C109.253 182.999 109.733 182.982 110.191 182.961C110.65 182.94 110.975 182.928 111.167 182.923C112.286 182.898 113.134 183.114 113.71 183.57C114.286 184.027 114.582 184.623 114.598 185.359C114.607 185.732 114.535 186.102 114.383 186.468C114.242 186.823 113.993 187.154 113.637 187.461C113.292 187.757 112.823 188.002 112.23 188.197L112.23 188.229C113.075 188.317 113.736 188.504 114.212 188.792C114.698 189.07 115.042 189.403 115.242 189.793C115.443 190.184 115.549 190.597 115.558 191.035C115.572 191.643 115.43 192.185 115.131 192.661C114.843 193.126 114.414 193.498 113.844 193.778C113.274 194.058 112.589 194.206 111.789 194.224C111.555 194.23 111.203 194.232 110.733 194.232C110.263 194.221 109.698 194.223 109.037 194.238C108.664 194.247 108.296 194.26 107.933 194.279C107.571 194.287 107.278 194.305 107.054 194.331L107.047 194.011C107.409 193.982 107.68 193.933 107.86 193.865C108.051 193.796 108.176 193.666 108.235 193.472C108.295 193.279 108.321 192.99 108.312 192.606L108.133 184.672C108.124 184.278 108.086 183.99 108.018 183.811C107.95 183.62 107.819 183.495 107.625 183.435C107.442 183.365 107.169 183.328 106.807 183.326L106.799 183.006ZM110.774 183.236C110.283 183.247 109.965 183.345 109.82 183.53C109.675 183.715 109.608 184.084 109.621 184.639L109.8 192.573C109.808 192.946 109.846 193.228 109.915 193.418C109.983 193.609 110.103 193.734 110.275 193.794C110.447 193.854 110.699 193.881 111.029 193.873C112.074 193.85 112.826 193.593 113.284 193.102C113.753 192.601 113.978 191.902 113.957 191.007C113.939 190.186 113.701 189.556 113.243 189.118C112.795 188.68 112.065 188.473 111.052 188.495L109.405 188.533C109.405 188.533 109.404 188.49 109.402 188.405C109.399 188.309 109.398 188.261 109.398 188.261L110.774 188.23C111.403 188.215 111.886 188.087 112.222 187.845C112.557 187.592 112.785 187.267 112.904 186.869C113.023 186.461 113.077 186.028 113.067 185.569C113.049 184.78 112.86 184.192 112.499 183.806C112.149 183.408 111.573 183.218 110.774 183.236ZM124.638 182.604C124.604 182.978 124.58 183.342 124.567 183.694C124.564 184.046 124.565 184.313 124.569 184.494C124.573 184.686 124.583 184.873 124.597 185.054C124.612 185.224 124.626 185.368 124.639 185.485L124.271 185.493C124.193 184.865 124.091 184.372 123.966 184.012C123.84 183.641 123.632 183.384 123.34 183.242C123.059 183.088 122.636 183.017 122.071 183.03L120.744 183.06C120.381 183.068 120.104 183.106 119.914 183.175C119.734 183.232 119.614 183.357 119.554 183.551C119.494 183.734 119.469 184.022 119.478 184.417L119.656 192.351C119.665 192.735 119.704 193.022 119.772 193.212C119.84 193.403 119.966 193.528 120.148 193.588C120.342 193.637 120.619 193.657 120.982 193.649L122.15 193.623C122.822 193.608 123.326 193.506 123.663 193.317C124.011 193.128 124.255 192.829 124.395 192.42C124.546 192.001 124.65 191.438 124.709 190.733L125.077 190.724C125.052 191.013 125.044 191.397 125.055 191.877C125.06 192.08 125.072 192.373 125.091 192.757C125.121 193.129 125.161 193.518 125.213 193.922C124.669 193.913 124.055 193.916 123.373 193.932C122.69 193.936 122.082 193.945 121.549 193.957C121.314 193.962 121.011 193.969 120.637 193.977C120.275 193.985 119.88 194 119.454 194.02C119.027 194.029 118.596 194.044 118.159 194.065C117.721 194.075 117.306 194.089 116.911 194.109L116.904 193.789C117.266 193.76 117.537 193.711 117.717 193.643C117.908 193.574 118.033 193.444 118.092 193.25C118.152 193.057 118.177 192.768 118.169 192.384L117.99 184.45C117.981 184.056 117.943 183.769 117.875 183.589C117.806 183.398 117.676 183.273 117.482 183.213C117.299 183.143 117.026 183.106 116.664 183.104L116.656 182.784C117.051 182.786 117.467 182.787 117.905 182.788C118.342 182.778 118.774 182.774 119.201 182.775C119.627 182.765 120.022 182.756 120.384 182.748C120.758 182.74 121.062 182.733 121.296 182.727C121.787 182.716 122.341 182.704 122.96 182.69C123.589 182.665 124.148 182.637 124.638 182.604ZM122.01 188.137C122.01 188.137 122.011 188.19 122.014 188.297C122.016 188.403 122.017 188.457 122.017 188.457L119.09 188.523C119.09 188.523 119.089 188.469 119.087 188.363C119.084 188.256 119.083 188.203 119.083 188.203L122.01 188.137ZM122.427 186.015C122.398 186.624 122.387 187.088 122.394 187.408C122.412 187.728 122.424 188.021 122.43 188.287C122.436 188.554 122.448 188.847 122.465 189.167C122.483 189.486 122.52 189.95 122.577 190.557L122.209 190.565C122.159 190.225 122.098 189.895 122.027 189.577C121.966 189.247 121.832 188.984 121.625 188.786C121.428 188.577 121.095 188.477 120.626 188.488L120.619 188.168C120.97 188.16 121.235 188.085 121.414 187.942C121.602 187.789 121.737 187.599 121.817 187.373C121.897 187.147 121.951 186.916 121.977 186.681C122.004 186.435 122.031 186.216 122.059 186.023L122.427 186.015ZM130.897 182.383L135.026 192.357C135.196 192.759 135.383 193.026 135.589 193.16C135.794 193.284 135.982 193.349 136.153 193.356L136.16 193.676C135.947 193.659 135.685 193.654 135.376 193.661C135.066 193.658 134.757 193.659 134.448 193.666C134.032 193.676 133.643 193.69 133.28 193.709C132.918 193.717 132.625 193.734 132.401 193.76L132.394 193.44C132.938 193.407 133.282 193.308 133.428 193.145C133.573 192.971 133.533 192.615 133.308 192.076L130.153 184.192L130.405 183.979L127.784 191.272C127.623 191.702 127.53 192.067 127.505 192.366C127.479 192.655 127.511 192.883 127.6 193.052C127.7 193.221 127.857 193.34 128.072 193.41C128.298 193.479 128.576 193.516 128.907 193.519L128.914 193.839C128.615 193.824 128.3 193.821 127.97 193.828C127.65 193.825 127.351 193.826 127.074 193.832C126.807 193.838 126.578 193.849 126.386 193.864C126.205 193.868 126.035 193.882 125.875 193.907L125.868 193.587C126.08 193.529 126.296 193.402 126.515 193.205C126.735 192.997 126.93 192.651 127.1 192.167L130.641 182.389C130.684 182.388 130.726 182.387 130.769 182.386C130.812 182.385 130.854 182.384 130.897 182.383ZM133.001 189.138L133.009 189.458L128.242 189.565L128.395 189.241L133.001 189.138ZM146.285 182.117L146.292 182.437C145.93 182.456 145.654 182.515 145.464 182.616C145.285 182.716 145.166 182.873 145.107 183.088C145.047 183.302 145.022 183.607 145.031 184.002L145.139 188.816C145.156 189.563 145.123 190.214 145.039 190.771C144.956 191.328 144.796 191.812 144.56 192.222C144.303 192.676 143.922 193.048 143.417 193.336C142.911 193.614 142.327 193.761 141.666 193.776C141.154 193.787 140.662 193.734 140.19 193.617C139.729 193.51 139.319 193.295 138.959 192.973C138.643 192.681 138.391 192.372 138.202 192.045C138.024 191.719 137.898 191.316 137.823 190.838C137.748 190.359 137.703 189.757 137.686 189.032L137.573 184.009C137.564 183.615 137.526 183.328 137.458 183.148C137.39 182.957 137.259 182.832 137.065 182.773C136.882 182.702 136.61 182.665 136.247 182.663L136.24 182.343C136.464 182.349 136.757 182.353 137.12 182.355C137.483 182.358 137.872 182.354 138.288 182.345C138.661 182.337 139.029 182.323 139.391 182.304C139.764 182.285 140.073 182.267 140.318 182.251L140.326 182.571C139.963 182.59 139.687 182.639 139.497 182.718C139.317 182.786 139.197 182.917 139.138 183.11C139.078 183.293 139.052 183.581 139.061 183.976L139.18 189.271C139.192 189.814 139.231 190.331 139.295 190.82C139.359 191.299 139.475 191.723 139.644 192.093C139.823 192.452 140.085 192.734 140.431 192.939C140.777 193.134 141.232 193.225 141.798 193.213C142.608 193.194 143.228 193.004 143.657 192.643C144.097 192.27 144.395 191.767 144.551 191.134C144.719 190.501 144.793 189.79 144.776 189.001L144.663 184.01C144.654 183.615 144.599 183.312 144.499 183.101C144.409 182.89 144.256 182.739 144.04 182.648C143.825 182.556 143.536 182.51 143.173 182.507L143.166 182.187C143.358 182.193 143.609 182.199 143.918 182.202C144.238 182.206 144.532 182.204 144.798 182.198C145.076 182.192 145.348 182.181 145.614 182.164C145.891 182.147 146.115 182.131 146.285 182.117ZM156.181 181.894C156.147 182.3 156.124 182.696 156.111 183.08C156.109 183.454 156.11 183.742 156.115 183.944C156.121 184.2 156.131 184.44 156.147 184.664C156.163 184.887 156.178 185.084 156.192 185.255L155.824 185.263C155.733 184.518 155.618 183.934 155.481 183.51C155.343 183.076 155.112 182.766 154.788 182.582C154.464 182.397 153.966 182.312 153.294 182.327L152.43 182.347L152.635 191.448C152.644 191.875 152.689 192.194 152.768 192.406C152.859 192.617 153.022 192.757 153.258 192.827C153.494 192.896 153.837 192.936 154.285 192.948L154.292 193.268C154.014 193.252 153.662 193.25 153.236 193.259C152.809 193.258 152.377 193.263 151.94 193.272C151.46 193.283 151.007 193.299 150.58 193.319C150.165 193.328 149.829 193.347 149.573 193.374L149.566 193.054C150.014 193.022 150.354 192.967 150.587 192.887C150.82 192.807 150.971 192.659 151.041 192.445C151.121 192.229 151.157 191.908 151.147 191.482L150.942 182.38L150.079 182.4C149.417 182.415 148.924 182.522 148.597 182.721C148.282 182.92 148.065 183.24 147.947 183.68C147.828 184.109 147.74 184.698 147.683 185.446L147.315 185.455C147.332 185.283 147.338 185.086 147.333 184.862C147.339 184.638 147.339 184.398 147.333 184.142C147.329 183.939 147.311 183.652 147.282 183.279C147.262 182.895 147.227 182.501 147.175 182.097C147.623 182.097 148.109 182.097 148.631 182.096C149.165 182.095 149.698 182.088 150.231 182.076C150.765 182.064 151.25 182.053 151.687 182.043C152.124 182.033 152.604 182.023 153.127 182.011C153.66 181.999 154.193 181.982 154.726 181.959C155.259 181.936 155.744 181.915 156.181 181.894ZM166.052 181.672L166.059 181.992C165.857 182.039 165.658 182.177 165.46 182.405C165.262 182.623 165.046 182.97 164.811 183.444L161.724 189.915L161.452 189.922L157.554 183.096C157.331 182.706 157.145 182.465 156.993 182.372C156.852 182.268 156.723 182.218 156.606 182.221L156.598 181.885C156.812 181.891 157.03 181.896 157.255 181.902C157.49 181.907 157.74 181.907 158.007 181.901C158.359 181.893 158.732 181.885 159.127 181.876C159.532 181.856 159.904 181.832 160.245 181.803L160.253 182.139C159.986 182.145 159.752 182.182 159.551 182.25C159.35 182.319 159.219 182.439 159.159 182.611C159.099 182.783 159.152 183.022 159.319 183.328L162.139 188.45L162.013 188.549L164.045 184.262C164.331 183.669 164.465 183.212 164.447 182.892C164.44 182.572 164.312 182.357 164.064 182.245C163.816 182.122 163.468 182.061 163.02 182.06L163.012 181.74C163.322 181.744 163.637 181.748 163.957 181.751C164.277 181.755 164.576 181.753 164.853 181.747C165.13 181.741 165.36 181.73 165.541 181.715C165.722 181.701 165.892 181.686 166.052 181.672ZM162.406 188.22L162.477 191.387C162.486 191.771 162.525 192.058 162.593 192.248C162.661 192.439 162.787 192.564 162.969 192.624C163.163 192.684 163.441 192.72 163.804 192.733L163.811 193.053C163.566 193.037 163.256 193.034 162.883 193.042C162.52 193.04 162.152 193.043 161.779 193.051C161.363 193.06 160.974 193.074 160.611 193.093C160.249 193.101 159.956 193.119 159.732 193.145L159.725 192.825C160.087 192.796 160.358 192.747 160.538 192.679C160.729 192.611 160.854 192.48 160.913 192.286C160.973 192.093 160.998 191.804 160.99 191.42L160.916 188.141L161.802 189.113L162.406 188.22Z" fill="#545454"/>
<path d="M61.08 113.6C58.3867 113.6 55.6667 112.813 52.92 111.24C51.24 112.013 49.64 112.4 48.12 112.4C46.6533 112.4 45.2133 112.08 43.8 111.44C42.0933 110.613 41.24 109.547 41.24 108.24C41.24 107.333 41.6 106.6 42.32 106.04C42.9867 105.533 43.7867 105.28 44.72 105.28C46.96 105.28 49.04 106.147 50.96 107.88C51.44 108.333 51.8667 108.72 52.24 109.04C52.6133 109.36 52.9333 109.627 53.2 109.84C54.48 108.8 55.7333 107.253 56.96 105.2C57.4667 104.32 57.96 103.44 58.44 102.56C58.92 101.68 59.4 100.8 59.88 99.92C57.5333 99.76 55.4667 99.1867 53.68 98.2C51.3867 96.9467 50.24 95.2933 50.24 93.24C50.24 91.64 50.8 90.28 51.92 89.16C53.04 88.04 54.4 87.48 56 87.48C57.0133 87.48 57.8933 87.7333 58.64 88.24C59.4667 88.8533 59.88 89.64 59.88 90.6C59.88 90.9733 59.76 91.16 59.52 91.16C59.4133 91.16 59.36 90.9467 59.36 90.52C59.36 90.4667 59.3467 90.3867 59.32 90.28C59.2933 90.1733 59.2533 90.04 59.2 89.88C58.72 88.52 57.6667 87.84 56.04 87.84C54.7067 87.84 53.5467 88.4133 52.56 89.56C51.6 90.68 51.12 91.9067 51.12 93.24C51.12 95.16 52.1867 96.7067 54.32 97.88C56 98.8133 57.9333 99.3467 60.12 99.48C60.9733 97.9867 61.84 96.6267 62.72 95.4C63.6267 94.1467 64.5333 93.0133 65.44 92C68.16 89.0133 70.6267 87.52 72.84 87.52C73.6133 87.52 74.2667 87.6933 74.8 88.04C75.4133 88.44 75.72 89 75.72 89.72C75.72 90.76 75.1067 92.04 73.88 93.56C73.4267 94.12 72.9333 94.6533 72.4 95.16C71.8667 95.6667 71.2933 96.1467 70.68 96.6C70.1733 97 69.64 97.36 69.08 97.68C68.5467 98 67.9867 98.3067 67.4 98.6C66.12 99.2133 64.6667 99.6133 63.04 99.8C61.92 102.36 60.7467 104.413 59.52 105.96C58.0533 107.827 56.2667 109.36 54.16 110.56C56.64 112.32 59.0267 113.2 61.32 113.2C62.5467 113.2 63.6133 112.96 64.52 112.48C65.64 111.867 66.2 111 66.2 109.88C66.2 109.72 66.2533 109.64 66.36 109.64C66.4667 109.64 66.52 109.733 66.52 109.92V110.04C66.52 111.213 66.0267 112.093 65.04 112.68C64.08 113.293 62.76 113.6 61.08 113.6ZM63.28 99.28C63.9467 99.1733 64.6 99.04 65.24 98.88C65.88 98.72 66.5067 98.52 67.12 98.28C67.6533 98.0667 68.1733 97.8133 68.68 97.52C69.1867 97.2267 69.6933 96.8933 70.2 96.52C71.3467 95.6667 72.3867 94.6533 73.32 93.48C74.5467 92.0133 75.16 90.76 75.16 89.72C75.16 88.8667 74.72 88.44 73.84 88.44C73.12 88.44 72.2667 88.6933 71.28 89.2C69.7067 90.0267 68.2933 91.2 67.04 92.72C65.7867 94.24 64.68 96.0933 63.72 98.28L63.28 99.28ZM47.72 111.88C49.32 111.88 50.76 111.493 52.04 110.72C51.3467 110.267 50.6533 109.813 49.96 109.36C49.2667 108.907 48.5733 108.467 47.88 108.04C45.9067 106.813 44.4533 106.2 43.52 106.2C42.32 106.2 41.72 106.747 41.72 107.84C41.72 108.907 42.3067 109.84 43.48 110.64C44.4667 111.307 45.5333 111.707 46.68 111.84C46.8667 111.867 47.04 111.88 47.2 111.88C47.3867 111.88 47.56 111.88 47.72 111.88ZM78.3697 111.12C76.983 111.12 76.2897 110.16 76.2897 108.24C76.2897 107.493 76.4097 106.64 76.6497 105.68C74.783 109.28 72.9297 111.08 71.0897 111.08C70.2097 111.08 69.543 110.64 69.0897 109.76C68.7164 109.093 68.5297 108.253 68.5297 107.24C68.5297 106.413 68.6497 105.547 68.8897 104.64C69.343 103.067 70.303 101.587 71.7697 100.2C73.3964 98.7067 74.943 97.96 76.4097 97.96C77.743 97.96 78.4097 98.76 78.4097 100.36C78.4097 101.053 78.263 101.867 77.9697 102.8L80.4097 98H80.5297C80.6097 98.1333 80.783 98.2 81.0497 98.2C81.583 98.2 82.263 97.88 83.0897 97.24L83.1697 97.32L79.7697 103.96C78.4097 106.6 77.7297 108.6 77.7297 109.96C77.7297 110.493 77.9697 110.76 78.4497 110.76C78.7697 110.76 79.1564 110.64 79.6097 110.4C80.063 110.16 80.543 109.76 81.0497 109.2C81.6897 108.453 82.2364 107.747 82.6897 107.08C83.1697 106.387 83.7164 105.453 84.3297 104.28C84.4097 104.147 84.4897 104.08 84.5697 104.08C84.7297 104.08 84.7297 104.213 84.5697 104.48C84.0897 105.387 83.5697 106.293 83.0097 107.2C82.4764 108.08 81.823 108.907 81.0497 109.68C80.0897 110.64 79.1964 111.12 78.3697 111.12ZM71.2497 110.8C72.743 110.8 74.663 108.693 77.0097 104.48C77.7564 103.147 78.1297 101.8 78.1297 100.44C78.1297 99 77.663 98.28 76.7297 98.28C75.7164 98.28 74.5697 99.12 73.2897 100.8C72.783 101.493 72.343 102.173 71.9697 102.84C71.623 103.507 71.343 104.147 71.1297 104.76C70.5697 106.36 70.2897 107.8 70.2897 109.08C70.2897 110.227 70.6097 110.8 71.2497 110.8ZM86.7269 111.48C84.0335 111.48 82.6869 110.2 82.6869 107.64C82.6869 106.92 82.8069 106.147 83.0469 105.32V105.36C83.1802 104.88 83.4335 104.413 83.8069 103.96C84.2602 103.4 84.6735 103.12 85.0469 103.12C85.0469 103.12 85.0869 103.12 85.1669 103.12C85.2469 103.12 85.3802 103.147 85.5669 103.2L86.0069 102.52C86.3802 101.96 86.7135 101.4 87.0069 100.84C87.3269 100.253 87.6602 99.68 88.0069 99.12C88.9935 97.4133 89.7402 96.4933 90.2469 96.36C90.4069 96.3067 90.5269 96.28 90.6069 96.28C91.0069 96.28 91.2069 96.4267 91.2069 96.72C91.2069 97.0667 90.9135 97.28 90.3269 97.36C89.7935 97.44 89.4602 97.5067 89.3269 97.56C89.1135 97.72 89.0069 98.0667 89.0069 98.6C89.0069 99.16 89.3669 100.107 90.0869 101.44C90.8069 102.747 91.1669 103.907 91.1669 104.92C91.1669 105.187 91.1402 105.44 91.0869 105.68C91.0602 105.92 91.0202 106.173 90.9669 106.44C90.2469 109.453 88.3402 110.96 85.2469 110.96C85.8602 111.093 86.4202 111.16 86.9269 111.16C87.8602 111.16 88.7669 111 89.6469 110.68C90.5269 110.333 91.3402 109.867 92.0869 109.28C92.8602 108.667 93.5669 107.933 94.2069 107.08C94.8735 106.2 95.4469 105.267 95.9269 104.28C96.0069 104.12 96.0869 104.04 96.1669 104.04C96.3269 104.04 96.3402 104.173 96.2069 104.44C95.7802 105.24 95.3269 106 94.8469 106.72C94.3935 107.413 93.9002 108.04 93.3669 108.6C92.7269 109.24 91.8602 109.88 90.7669 110.52C89.6735 111.16 88.3269 111.48 86.7269 111.48ZM84.9669 110.64C86.3269 110.64 87.4469 109.613 88.3269 107.56C89.0469 105.96 89.4069 104.347 89.4069 102.72C89.4069 102.507 89.3669 102.227 89.2869 101.88C89.2335 101.507 89.1402 101.067 89.0069 100.56C88.9002 100.08 88.8202 99.6667 88.7669 99.32C88.7135 98.9467 88.7002 98.6267 88.7269 98.36C88.2202 99.3733 87.7135 100.293 87.2069 101.12C86.7002 101.947 86.2202 102.693 85.7669 103.36C85.9002 103.573 85.9669 103.787 85.9669 104C85.9669 104.373 85.8202 104.787 85.5269 105.24C85.3402 105.507 85.0202 105.76 84.5669 106C84.1135 106.24 83.7935 106.467 83.6069 106.68C83.3135 107.107 83.1669 107.667 83.1669 108.36C83.1669 109.88 83.7669 110.64 84.9669 110.64ZM92.3119 111.64L92.2319 111.6C93.8319 106.267 95.9519 101.133 98.5919 96.2C102.432 89.0267 106.059 85.44 109.472 85.44C110.725 85.44 111.352 86.0533 111.352 87.28C111.352 88.7467 110.525 90.4267 108.872 92.32C107.485 93.84 106.005 95.0667 104.432 96C103.205 96.72 101.792 97.36 100.192 97.92C99.9519 98 99.7785 98.0267 99.6719 98C98.8452 99.4667 98.0985 100.893 97.4319 102.28C96.7919 103.667 96.2185 105.027 95.7119 106.36C96.8319 104.227 98.0319 102.427 99.3119 100.96C101.152 98.8533 102.885 97.8 104.512 97.8C105.845 97.8 106.512 98.28 106.512 99.24C106.512 100.173 105.619 101.92 103.832 104.48C102.259 106.693 101.472 108.453 101.472 109.76C101.472 110.427 101.765 110.76 102.352 110.76C102.805 110.76 103.325 110.613 103.912 110.32C104.499 110.027 105.112 109.547 105.752 108.88C106.579 107.973 107.205 107.133 107.632 106.36C108.085 105.587 108.485 104.88 108.832 104.24C108.912 104.107 108.992 104.053 109.072 104.08C109.152 104.107 109.165 104.187 109.112 104.32C108.712 105.147 108.232 106.013 107.672 106.92C107.139 107.8 106.579 108.547 105.992 109.16C105.245 109.96 104.499 110.507 103.752 110.8C103.032 111.093 102.325 111.24 101.632 111.24C100.219 111.24 99.5119 110.56 99.5119 109.2C99.5119 108 99.9785 106.613 100.912 105.04C101.125 104.693 101.445 104.213 101.872 103.6C102.325 102.987 102.885 102.24 103.552 101.36C104.485 100.107 104.952 99.2933 104.952 98.92C104.952 98.44 104.645 98.2 104.032 98.2C102.859 98.2 101.459 99.0933 99.8319 100.88C98.7385 102.08 97.7252 103.48 96.7919 105.08C96.3652 105.8 95.9252 106.653 95.4719 107.64C95.0185 108.627 94.5385 109.747 94.0319 111L93.9519 111.04C93.7385 110.907 93.5385 110.84 93.3519 110.84C92.8719 110.84 92.5252 111.107 92.3119 111.64ZM99.8719 97.64C99.9785 97.64 100.085 97.6267 100.192 97.6C100.805 97.4667 101.432 97.2533 102.072 96.96C102.739 96.6667 103.405 96.3067 104.072 95.88C104.792 95.4 105.512 94.8533 106.232 94.24C106.952 93.6 107.672 92.88 108.392 92.08C110.152 90.16 111.032 88.5333 111.032 87.2C111.032 86.2667 110.565 85.8 109.632 85.8C108.405 85.8 106.592 87.4533 104.192 90.76C103.472 91.7733 102.739 92.8533 101.992 94C101.272 95.1467 100.565 96.36 99.8719 97.64ZM111.46 111.4C110.153 111.4 109.247 111.04 108.74 110.32C108.233 109.573 107.98 108.533 107.98 107.2C107.98 105.28 108.78 103.28 110.38 101.2C112.087 99.0133 113.86 97.92 115.7 97.92C117.06 97.92 117.74 98.3867 117.74 99.32C117.74 100.467 117.113 101.667 115.86 102.92C114.073 104.733 112.193 105.64 110.22 105.64C109.9 106.467 109.74 107.293 109.74 108.12C109.74 109.027 109.913 109.733 110.26 110.24C110.607 110.747 111.113 111 111.78 111C112.473 111 113.193 110.813 113.94 110.44C114.687 110.04 115.327 109.573 115.86 109.04C116.313 108.587 116.82 107.973 117.38 107.2C117.967 106.4 118.553 105.427 119.14 104.28C119.22 104.147 119.3 104.08 119.38 104.08C119.54 104.08 119.54 104.213 119.38 104.48C118.927 105.387 118.433 106.253 117.9 107.08C117.393 107.907 116.713 108.707 115.86 109.48C115.353 109.987 114.713 110.44 113.94 110.84C113.167 111.213 112.34 111.4 111.46 111.4ZM110.26 105.36C111.727 105.36 113.367 104.573 115.18 103V102.96C115.687 102.533 116.167 101.947 116.62 101.2C117.153 100.373 117.42 99.6667 117.42 99.08C117.42 98.6533 117.1 98.44 116.46 98.44C115.447 98.44 114.22 99.3467 112.78 101.16C112.113 101.96 111.58 102.707 111.18 103.4C110.78 104.093 110.473 104.747 110.26 105.36ZM121.532 111.48C118.838 111.48 117.492 110.2 117.492 107.64C117.492 106.92 117.612 106.147 117.852 105.32V105.36C117.985 104.88 118.238 104.413 118.612 103.96C119.065 103.4 119.478 103.12 119.852 103.12C119.852 103.12 119.892 103.12 119.972 103.12C120.052 103.12 120.185 103.147 120.372 103.2L120.812 102.52C121.185 101.96 121.518 101.4 121.812 100.84C122.132 100.253 122.465 99.68 122.812 99.12C123.798 97.4133 124.545 96.4933 125.052 96.36C125.212 96.3067 125.332 96.28 125.412 96.28C125.812 96.28 126.012 96.4267 126.012 96.72C126.012 97.0667 125.718 97.28 125.132 97.36C124.598 97.44 124.265 97.5067 124.132 97.56C123.918 97.72 123.812 98.0667 123.812 98.6C123.812 99.16 124.172 100.107 124.892 101.44C125.612 102.747 125.972 103.907 125.972 104.92C125.972 105.187 125.945 105.44 125.892 105.68C125.865 105.92 125.825 106.173 125.772 106.44C125.052 109.453 123.145 110.96 120.052 110.96C120.665 111.093 121.225 111.16 121.732 111.16C122.665 111.16 123.572 111 124.452 110.68C125.332 110.333 126.145 109.867 126.892 109.28C127.665 108.667 128.372 107.933 129.012 107.08C129.678 106.2 130.252 105.267 130.732 104.28C130.812 104.12 130.892 104.04 130.972 104.04C131.132 104.04 131.145 104.173 131.012 104.44C130.585 105.24 130.132 106 129.652 106.72C129.198 107.413 128.705 108.04 128.172 108.6C127.532 109.24 126.665 109.88 125.572 110.52C124.478 111.16 123.132 111.48 121.532 111.48ZM119.772 110.64C121.132 110.64 122.252 109.613 123.132 107.56C123.852 105.96 124.212 104.347 124.212 102.72C124.212 102.507 124.172 102.227 124.092 101.88C124.038 101.507 123.945 101.067 123.812 100.56C123.705 100.08 123.625 99.6667 123.572 99.32C123.518 98.9467 123.505 98.6267 123.532 98.36C123.025 99.3733 122.518 100.293 122.012 101.12C121.505 101.947 121.025 102.693 120.572 103.36C120.705 103.573 120.772 103.787 120.772 104C120.772 104.373 120.625 104.787 120.332 105.24C120.145 105.507 119.825 105.76 119.372 106C118.918 106.24 118.598 106.467 118.412 106.68C118.118 107.107 117.972 107.667 117.972 108.36C117.972 109.88 118.572 110.64 119.772 110.64ZM130.277 114.96C129.983 114.96 129.837 114.893 129.837 114.76C129.837 114.707 129.93 114.667 130.117 114.64C130.783 114.533 131.41 114.24 131.997 113.76C132.583 113.307 133.063 112.76 133.437 112.12C133.837 111.507 134.077 110.92 134.157 110.36C133.73 110.787 133.29 111 132.837 111C132.463 111 132.183 110.88 131.997 110.64C131.837 110.373 131.77 110.027 131.797 109.6C131.85 109.227 132.05 108.92 132.397 108.68C132.743 108.413 133.09 108.28 133.437 108.28C133.863 108.28 134.21 108.413 134.477 108.68C134.743 108.92 134.877 109.293 134.877 109.8C134.877 110.333 134.73 110.907 134.437 111.52C134.17 112.133 133.823 112.693 133.397 113.2C132.997 113.707 132.57 114.093 132.117 114.36C131.61 114.653 131.197 114.827 130.877 114.88C130.583 114.933 130.383 114.96 130.277 114.96ZM148.421 112.12C146.367 112.12 145.341 111.547 145.341 110.4C145.341 109.12 146.194 108.48 147.901 108.48C148.701 108.48 150.607 108.947 153.621 109.88C154.341 109.267 155.047 108.52 155.741 107.64C156.461 106.733 157.141 105.667 157.781 104.44C158.314 103.427 158.821 102.4 159.301 101.36C159.781 100.293 160.274 99.24 160.781 98.2C163.047 93.5333 165.647 90.2 168.581 88.2C167.754 87.96 166.807 87.7733 165.741 87.64C164.701 87.5067 163.554 87.44 162.301 87.44C160.914 87.44 159.607 87.56 158.381 87.8C157.154 88.0133 155.994 88.3467 154.901 88.8C152.314 89.84 150.394 91.4 149.141 93.48C148.367 94.7867 147.981 96.08 147.981 97.36C147.981 98.72 148.407 99.8533 149.261 100.76C150.114 101.693 151.221 102.16 152.581 102.16C154.101 102.16 155.447 101.613 156.621 100.52C157.794 99.4 158.381 98.0933 158.381 96.6C158.381 95.56 158.101 94.7067 157.541 94.04C156.954 93.3467 156.141 93 155.101 93C154.327 93 153.634 93.24 153.021 93.72C152.407 94.2533 152.101 94.92 152.101 95.72C152.101 96.36 152.447 96.68 153.141 96.68C153.194 96.68 153.234 96.64 153.261 96.56C153.341 96.48 153.407 96.44 153.461 96.44C153.514 96.4667 153.541 96.5067 153.541 96.56C153.541 96.8267 153.394 96.96 153.101 96.96C152.194 96.96 151.741 96.5333 151.741 95.68C151.741 94.8267 152.127 94.08 152.901 93.44C153.647 92.8267 154.447 92.52 155.301 92.52C156.447 92.52 157.381 92.8933 158.101 93.64C158.847 94.3867 159.221 95.3333 159.221 96.48C159.221 98.24 158.527 99.72 157.141 100.92C155.834 102.04 154.287 102.6 152.501 102.6C150.821 102.6 149.447 102.107 148.381 101.12C147.234 100.053 146.661 98.7333 146.661 97.16C146.661 96.04 146.941 94.9467 147.501 93.88C148.727 91.4533 150.887 89.64 153.981 88.44C156.514 87.4533 159.394 86.96 162.621 86.96C165.154 86.96 167.381 87.2267 169.301 87.76C170.154 87.28 170.967 86.92 171.741 86.68C172.514 86.4133 173.274 86.28 174.021 86.28C174.234 86.28 174.341 86.3067 174.341 86.36C174.341 86.44 174.301 86.48 174.221 86.48C174.114 86.48 173.967 86.4933 173.781 86.52C173.621 86.52 173.434 86.5333 173.221 86.56C172.047 86.6667 170.901 87.12 169.781 87.92C172.581 88.8267 173.981 90.36 173.981 92.52C173.981 92.76 173.954 93 173.901 93.24C173.874 93.4533 173.834 93.6667 173.781 93.88C173.461 95.24 172.181 96.3467 169.941 97.2C168.341 97.76 166.541 98.12 164.541 98.28H165.781C170.501 98.28 172.861 99.8933 172.861 103.12C172.861 104.96 172.154 106.587 170.741 108C169.514 109.227 167.941 110.147 166.021 110.76C165.247 111.027 164.434 111.213 163.581 111.32C162.727 111.453 161.847 111.52 160.941 111.52C159.847 111.52 158.714 111.427 157.541 111.24C156.394 111.053 155.221 110.76 154.021 110.36C151.887 111.533 150.021 112.12 148.421 112.12ZM162.781 98.16C168.434 97.6267 171.514 96.1867 172.021 93.84C172.127 93.3333 172.181 92.8267 172.181 92.32C172.181 90.4533 171.181 89.1467 169.181 88.4C166.861 90.3467 164.727 93.6 162.781 98.16ZM159.501 110.96C162.247 110.96 164.687 110.307 166.821 109C169.407 107.48 170.701 105.467 170.701 102.96C170.701 99.9467 168.501 98.44 164.101 98.44C163.834 98.44 163.581 98.4533 163.341 98.48C163.101 98.48 162.874 98.4933 162.661 98.52C161.354 101.587 160.314 103.76 159.541 105.04C158.207 107.173 156.501 108.867 154.421 110.12C156.261 110.68 157.954 110.96 159.501 110.96ZM148.701 111.8C150.301 111.8 151.834 111.253 153.301 110.16C152.154 109.76 151.141 109.467 150.261 109.28C149.407 109.093 148.714 109 148.181 109C146.554 109 145.741 109.48 145.741 110.44C145.741 111.347 146.727 111.8 148.701 111.8ZM180.745 111.16C179.145 111.16 178.345 110.453 178.345 109.04C178.345 107.92 178.785 106.64 179.665 105.2C179.958 104.693 180.772 103.56 182.105 101.8C182.985 100.627 183.425 99.8 183.425 99.32C183.425 98.8667 183.052 98.64 182.305 98.64C181.798 98.64 181.238 98.6533 180.625 98.68C180.038 98.7067 179.558 98.7333 179.185 98.76C179.105 99.1867 178.985 99.68 178.825 100.24C178.665 100.8 178.478 101.387 178.265 102C178.132 102.373 177.918 102.88 177.625 103.52C177.358 104.16 176.998 104.84 176.545 105.56C176.465 105.667 176.398 105.72 176.345 105.72C176.318 105.72 176.305 105.693 176.305 105.64C176.305 105.507 176.358 105.333 176.465 105.12C176.678 104.747 176.918 104.293 177.185 103.76C177.452 103.2 177.705 102.587 177.945 101.92C178.158 101.333 178.345 100.72 178.505 100.08C178.692 99.4133 178.798 98.96 178.825 98.72C178.185 98.32 177.865 97.72 177.865 96.92C177.865 96.0133 178.185 95.56 178.825 95.56C179.278 95.56 179.505 95.9733 179.505 96.8C179.505 96.9867 179.478 97.2133 179.425 97.48C179.372 97.7467 179.305 98.0667 179.225 98.44C179.598 98.4133 180.185 98.3867 180.985 98.36C181.812 98.3067 182.598 98.28 183.345 98.28C184.705 98.28 185.385 98.6933 185.385 99.52C185.385 100.4 184.332 102.213 182.225 104.96C181.772 105.627 181.265 106.387 180.705 107.24C180.172 108.067 179.905 108.92 179.905 109.8C179.905 110.04 179.958 110.267 180.065 110.48C180.172 110.693 180.398 110.8 180.745 110.8C181.892 110.8 183.158 110.107 184.545 108.72C185.238 108.027 185.878 107.28 186.465 106.48C187.052 105.68 187.585 104.787 188.065 103.8C188.172 103.587 188.265 103.48 188.345 103.48C188.398 103.48 188.425 103.52 188.425 103.6C188.425 103.733 188.385 103.88 188.305 104.04C187.852 104.973 187.305 105.88 186.665 106.76C186.025 107.613 185.318 108.427 184.545 109.2C183.238 110.507 181.972 111.16 180.745 111.16ZM191.003 111.36C189.829 111.36 188.936 110.853 188.323 109.84C187.763 108.987 187.483 107.947 187.483 106.72C187.483 104.613 188.149 102.653 189.483 100.84C190.949 98.8667 192.709 97.88 194.763 97.88C195.803 97.88 196.603 98.24 197.163 98.96C197.696 99.6533 197.963 100.533 197.963 101.6C197.963 102.08 197.909 102.573 197.803 103.08C197.723 103.587 197.589 104.12 197.403 104.68C197.003 105.853 196.509 106.773 195.923 107.44L196.003 107.56C196.269 107.747 196.589 107.84 196.963 107.84C197.736 107.84 198.389 107.587 198.923 107.08C199.456 106.573 200.056 105.667 200.723 104.36C200.749 104.253 200.803 104.2 200.883 104.2C200.936 104.2 200.976 104.24 201.003 104.32C201.029 104.373 201.016 104.453 200.963 104.56C200.403 105.733 199.803 106.627 199.163 107.24C198.549 107.853 197.829 108.16 197.003 108.16C196.469 108.16 196.056 108.013 195.763 107.72C195.496 108.2 195.203 108.653 194.883 109.08C194.563 109.48 194.203 109.84 193.803 110.16C192.896 110.96 191.963 111.36 191.003 111.36ZM191.283 111.04C192.696 111.04 194.083 109.96 195.443 107.8C195.443 107.72 195.483 107.64 195.563 107.56C195.083 106.76 194.842 106 194.842 105.28C194.842 105.253 194.842 105.2 194.842 105.12C194.842 105.013 194.856 104.88 194.883 104.72C194.909 104.427 194.963 104.133 195.043 103.84C195.123 103.52 195.256 103.227 195.443 102.96C195.843 102.32 196.323 102 196.883 102H197.243C197.349 102.027 197.429 102.04 197.483 102.04C197.536 102.04 197.576 102.04 197.603 102.04C197.603 99.64 196.843 98.44 195.323 98.44C194.043 98.44 192.829 99.2133 191.683 100.76C190.749 101.987 190.083 103.36 189.683 104.88C189.443 105.707 189.323 106.573 189.323 107.48C189.323 109.853 189.976 111.04 191.283 111.04ZM201.492 111.36C199.972 111.36 199.212 110.587 199.212 109.04C199.212 107.333 200.839 103.693 204.092 98.12H204.172C204.359 98.2533 204.586 98.32 204.852 98.32C205.412 98.32 206.106 98.0533 206.932 97.52L206.972 97.6C205.906 98.7733 204.666 100.707 203.252 103.4C201.706 106.333 200.932 108.44 200.932 109.72C200.932 110.493 201.239 110.88 201.852 110.88C202.732 110.88 203.786 110.053 205.012 108.4C205.839 107.28 206.572 106.053 207.212 104.72C207.586 104 208.039 103.107 208.572 102.04C209.132 100.947 209.786 99.6933 210.532 98.28L210.612 98.24C210.959 98.4267 211.306 98.52 211.652 98.52C212.292 98.52 212.786 98.2533 213.132 97.72L213.212 97.8L209.932 103.52C208.759 105.573 208.172 107.467 208.172 109.2C208.172 110.32 208.546 110.88 209.292 110.88C211.239 110.88 213.292 109.133 215.452 105.64C215.132 105.16 214.972 104.373 214.972 103.28C214.972 102.96 214.986 102.64 215.012 102.32C215.066 101.973 215.119 101.627 215.172 101.28C215.306 100.587 215.506 99.9333 215.772 99.32C216.172 98.3867 216.599 97.92 217.052 97.92C217.559 97.92 217.812 98.36 217.812 99.24C217.812 99.9867 217.626 100.92 217.252 102.04C216.906 103.16 216.386 104.387 215.692 105.72C215.772 106.067 215.959 106.413 216.252 106.76C216.572 107.107 216.932 107.28 217.332 107.28C218.479 107.28 219.519 106.333 220.452 104.44C220.532 104.28 220.612 104.227 220.692 104.28C220.799 104.333 220.812 104.427 220.732 104.56C220.226 105.547 219.706 106.293 219.172 106.8C218.666 107.307 218.066 107.56 217.372 107.56C216.546 107.56 215.932 107.093 215.532 106.16C215.186 106.827 214.799 107.453 214.372 108.04C213.946 108.6 213.479 109.107 212.972 109.56C211.746 110.68 210.452 111.24 209.092 111.24C207.226 111.24 206.292 110.387 206.292 108.68C206.292 108.387 206.319 108.08 206.372 107.76C206.426 107.413 206.506 107.067 206.612 106.72C204.959 109.813 203.252 111.36 201.492 111.36ZM222.938 111.48C220.244 111.48 218.898 110.2 218.898 107.64C218.898 106.92 219.018 106.147 219.258 105.32V105.36C219.391 104.88 219.644 104.413 220.018 103.96C220.471 103.4 220.884 103.12 221.258 103.12C221.258 103.12 221.298 103.12 221.378 103.12C221.458 103.12 221.591 103.147 221.778 103.2L222.218 102.52C222.591 101.96 222.924 101.4 223.218 100.84C223.538 100.253 223.871 99.68 224.218 99.12C225.204 97.4133 225.951 96.4933 226.458 96.36C226.618 96.3067 226.738 96.28 226.818 96.28C227.218 96.28 227.418 96.4267 227.418 96.72C227.418 97.0667 227.124 97.28 226.538 97.36C226.004 97.44 225.671 97.5067 225.538 97.56C225.324 97.72 225.218 98.0667 225.218 98.6C225.218 99.16 225.578 100.107 226.298 101.44C227.018 102.747 227.378 103.907 227.378 104.92C227.378 105.187 227.351 105.44 227.298 105.68C227.271 105.92 227.231 106.173 227.178 106.44C226.458 109.453 224.551 110.96 221.458 110.96C222.071 111.093 222.631 111.16 223.138 111.16C224.071 111.16 224.978 111 225.858 110.68C226.738 110.333 227.551 109.867 228.298 109.28C229.071 108.667 229.778 107.933 230.418 107.08C231.084 106.2 231.658 105.267 232.138 104.28C232.218 104.12 232.298 104.04 232.378 104.04C232.538 104.04 232.551 104.173 232.418 104.44C231.991 105.24 231.538 106 231.058 106.72C230.604 107.413 230.111 108.04 229.578 108.6C228.938 109.24 228.071 109.88 226.978 110.52C225.884 111.16 224.538 111.48 222.938 111.48ZM221.178 110.64C222.538 110.64 223.658 109.613 224.538 107.56C225.258 105.96 225.618 104.347 225.618 102.72C225.618 102.507 225.578 102.227 225.498 101.88C225.444 101.507 225.351 101.067 225.218 100.56C225.111 100.08 225.031 99.6667 224.978 99.32C224.924 98.9467 224.911 98.6267 224.938 98.36C224.431 99.3733 223.924 100.293 223.418 101.12C222.911 101.947 222.431 102.693 221.978 103.36C222.111 103.573 222.178 103.787 222.178 104C222.178 104.373 222.031 104.787 221.738 105.24C221.551 105.507 221.231 105.76 220.778 106C220.324 106.24 220.004 106.467 219.818 106.68C219.524 107.107 219.378 107.667 219.378 108.36C219.378 109.88 219.978 110.64 221.178 110.64ZM52.24 155.04C49.7867 155.04 47.76 154.4 46.16 153.12C44.4 151.707 43.52 149.813 43.52 147.44C43.52 146.667 43.6133 145.987 43.8 145.4C44.4933 142.92 45.8667 140.92 47.92 139.4C49.8667 137.987 52.1867 137.133 54.88 136.84C54.0533 135.96 53.64 134.987 53.64 133.92C53.64 132.133 54.4667 130.693 56.12 129.6C57.56 128.64 59.2133 128.16 61.08 128.16C64.1733 128.16 65.72 129.227 65.72 131.36C65.72 132.187 65.4 132.92 64.76 133.56C64.12 134.2 63.3867 134.52 62.56 134.52C62.1067 134.52 61.7067 134.427 61.36 134.24C60.9067 134 60.68 133.68 60.68 133.28C60.68 133.2 60.7067 133.08 60.76 132.92C60.76 132.76 60.8133 132.68 60.92 132.68C61 132.68 61.04 132.733 61.04 132.84C61.04 132.92 61.0267 133 61 133.08C60.9467 133.187 60.92 133.267 60.92 133.32C60.92 133.827 61.1867 134.08 61.72 134.08C62.52 134.08 63.24 133.84 63.88 133.36C64.5733 132.827 64.92 132.16 64.92 131.36C64.92 130.48 64.56 129.787 63.84 129.28C63.2267 128.827 62.4533 128.6 61.52 128.6C59.7333 128.6 58.2133 129.147 56.96 130.24C55.6533 131.387 55 132.84 55 134.6C55 135.48 55.2133 136.213 55.64 136.8C55.8 136.8 55.96 136.8 56.12 136.8C56.28 136.773 56.44 136.76 56.6 136.76C59.56 136.76 61.04 137.173 61.04 138C61.04 138.533 60.56 138.8 59.6 138.8C58.1067 138.8 56.76 138.36 55.56 137.48C50.4133 138.413 47.2667 141.067 46.12 145.44C45.9333 146.08 45.84 146.8 45.84 147.6C45.84 149.627 46.4933 151.293 47.8 152.6C49.1067 153.827 50.8 154.44 52.88 154.44C55.3867 154.44 57.6933 153.64 59.8 152.04C62.0667 150.28 63.2 148.187 63.2 145.76C63.2 143.413 61.8267 142.24 59.08 142.24C58.2533 142.24 57.4267 142.333 56.6 142.52C55.8 142.707 54.9867 143 54.16 143.4C53.68 143.613 53.24 143.88 52.84 144.2C52.44 144.493 52.0667 144.827 51.72 145.2C50.9467 146.133 50.56 147.053 50.56 147.96C50.56 148.76 50.8267 149.427 51.36 149.96C51.8933 150.493 52.56 150.76 53.36 150.76C54.24 150.76 55.0133 150.56 55.68 150.16C56.48 149.707 56.88 149.08 56.88 148.28C56.88 148.04 56.96 147.92 57.12 147.92C57.3333 147.92 57.44 148.12 57.44 148.52C57.44 149.4 56.9733 150.12 56.04 150.68C55.2933 151.133 54.4267 151.36 53.44 151.36C52.24 151.36 51.2667 150.907 50.52 150C49.8 149.12 49.44 148.093 49.44 146.92C49.44 144.573 50.5333 142.88 52.72 141.84C53.92 141.28 55.7067 141 58.08 141C59.4667 141 61.52 141.12 64.24 141.36C66.96 141.6 69 141.72 70.36 141.72C74.6 141.72 76.72 140.787 76.72 138.92C76.72 137.88 76.1467 137.267 75 137.08C74.76 137.027 74.64 136.907 74.64 136.72C74.64 136.48 74.76 136.36 75 136.36C75.6133 136.36 76.1867 136.627 76.72 137.16C77.1733 137.693 77.4 138.28 77.4 138.92C77.4 138.973 77.4 139.04 77.4 139.12C77.4 139.2 77.3867 139.267 77.36 139.32C76.9333 141.4 74.6133 142.44 70.4 142.44C69.4933 142.44 68.2133 142.4 66.56 142.32C65.6533 142.267 64.88 142.227 64.24 142.2C63.6 142.173 63.08 142.16 62.68 142.16C64.04 142.8 64.72 144.04 64.72 145.88C64.72 148.627 63.28 150.907 60.4 152.72C57.8667 154.267 55.1467 155.04 52.24 155.04ZM59 138.4C59.8267 138.4 60.24 138.227 60.24 137.88C60.24 137.427 59.64 137.2 58.44 137.2C58.0667 137.2 57.68 137.213 57.28 137.24C56.9067 137.267 56.5333 137.307 56.16 137.36C56.9867 138.053 57.9333 138.4 59 138.4ZM90.1075 157.36C87.5742 157.36 85.4675 156.64 83.7875 155.2C82.0275 153.627 81.1475 151.6 81.1475 149.12C81.1475 146.827 81.9608 144.867 83.5875 143.24C85.2675 141.613 87.2408 140.8 89.5075 140.8C91.1342 140.8 92.5608 141.267 93.7875 142.2C95.1208 143.187 95.7875 144.48 95.7875 146.08C95.7875 147.627 95.2675 148.867 94.2275 149.8C93.2142 150.653 91.9342 151.08 90.3875 151.08C89.3475 151.08 88.6675 150.96 88.3475 150.72L88.3075 150.64C88.3875 150.533 88.4675 150.48 88.5475 150.48C88.5742 150.48 88.6008 150.493 88.6275 150.52C88.7608 150.6 88.9608 150.653 89.2275 150.68C89.5208 150.707 89.8542 150.72 90.2275 150.72C91.6942 150.72 92.8542 150.293 93.7075 149.44C94.5608 148.613 94.9875 147.467 94.9875 146C94.9875 144.56 94.4942 143.4 93.5075 142.52C92.5208 141.667 91.3208 141.24 89.9075 141.24C87.7208 141.24 85.9208 141.947 84.5075 143.36C83.1208 144.747 82.4275 146.547 82.4275 148.76C82.4275 151.16 83.2008 153.053 84.7475 154.44C86.2408 155.773 88.2142 156.44 90.6675 156.44C95.9475 156.44 101.508 152.507 107.348 144.64C111.854 138.613 115.388 134.867 117.948 133.4L109.548 130.56C108.961 130.347 108.361 130.2 107.748 130.12C107.161 130.04 106.561 130 105.948 130C103.868 130 101.961 130.547 100.228 131.64C98.2808 132.92 97.3075 134.547 97.3075 136.52C97.3075 137.427 97.5208 138.307 97.9475 139.16C98.8542 141.053 100.588 142 103.148 142C103.361 142 103.561 142 103.748 142C103.934 142 104.121 141.987 104.308 141.96C105.481 141.8 106.534 141.267 107.468 140.36C108.508 139.347 109.028 138.307 109.028 137.24C109.028 136.44 108.694 135.84 108.028 135.44C108.001 135.413 107.988 135.373 107.988 135.32C107.988 135.267 108.014 135.24 108.068 135.24C108.094 135.24 108.108 135.253 108.108 135.28C108.134 135.28 108.161 135.28 108.188 135.28H108.308C109.161 135.733 109.588 136.467 109.588 137.48C109.588 138.573 109.121 139.613 108.188 140.6C107.334 141.453 106.321 142.027 105.148 142.32C104.428 142.507 103.654 142.6 102.828 142.6C100.961 142.6 99.3742 142.013 98.0675 140.84C96.7342 139.587 96.0675 138.027 96.0675 136.16C96.0675 133.84 97.0142 131.973 98.9075 130.56C100.614 129.253 102.654 128.6 105.028 128.6C105.188 128.6 105.334 128.6 105.468 128.6C105.628 128.6 105.774 128.613 105.908 128.64C109.081 128.907 112.561 129.987 116.348 131.88C116.614 131.987 116.921 132.147 117.268 132.36C117.641 132.547 118.068 132.787 118.548 133.08C119.801 132.12 121.321 131.64 123.108 131.64C123.481 131.64 123.841 131.68 124.188 131.76C124.561 131.813 124.881 131.92 125.148 132.08C125.894 132.48 126.268 133.04 126.268 133.76C126.268 134.987 125.601 135.6 124.267 135.6C123.868 135.6 123.414 135.533 122.908 135.4C122.428 135.267 122.094 135.147 121.908 135.04C121.641 135.44 121.361 135.867 121.068 136.32C120.774 136.773 120.468 137.267 120.148 137.8C119.721 138.52 118.961 140.227 117.868 142.92C117.441 143.987 116.988 144.92 116.508 145.72C116.054 146.52 115.561 147.213 115.028 147.8C112.868 150.147 110.388 151.867 107.588 152.96C107.641 152.96 107.708 152.96 107.788 152.96C107.894 152.933 108.028 152.92 108.188 152.92H108.788C109.348 152.92 109.854 152.947 110.308 153C110.788 153.053 111.228 153.12 111.628 153.2C113.201 153.6 114.121 153.8 114.388 153.8C114.868 153.8 115.108 153.6 115.108 153.2C115.108 153.04 115.081 152.907 115.028 152.8C115.001 152.693 114.988 152.613 114.988 152.56C114.988 152.48 114.988 152.427 114.988 152.4C114.988 152.373 114.988 152.36 114.988 152.36C115.014 152.333 115.028 152.32 115.028 152.32C115.054 152.32 115.081 152.333 115.108 152.36C115.348 152.6 115.468 152.92 115.468 153.32C115.468 154.333 114.788 154.84 113.428 154.84C113.161 154.84 112.868 154.813 112.548 154.76C112.228 154.707 111.881 154.6 111.508 154.44L109.708 153.72C109.228 153.507 108.734 153.373 108.228 153.32C107.721 153.293 107.201 153.28 106.668 153.28L106.628 153.16C108.201 152.04 109.654 150.72 110.988 149.2C111.948 148.133 113.081 146.52 114.388 144.36C114.468 144.227 114.628 143.96 114.868 143.56H108.828C107.334 145.693 105.934 147.547 104.628 149.12C103.321 150.667 102.121 151.907 101.028 152.84C97.6142 155.853 93.9742 157.36 90.1075 157.36ZM123.588 135.28C124.948 135.28 125.628 134.787 125.628 133.8C125.628 133.213 125.388 132.76 124.908 132.44C124.481 132.12 123.961 131.96 123.347 131.96C121.694 131.96 120.201 132.387 118.868 133.24C119.294 133.427 119.721 133.64 120.148 133.88C120.574 134.093 121.001 134.307 121.428 134.52L123.148 132.76C123.201 132.76 123.228 132.787 123.228 132.84C123.228 133 122.841 133.667 122.068 134.84C122.574 135.133 123.081 135.28 123.588 135.28ZM109.148 143.12H115.148C116.828 140.347 118.828 137.547 121.148 134.72L118.348 133.56C117.681 133.987 116.921 134.56 116.068 135.28C115.241 136 114.348 136.88 113.388 137.92C111.734 139.733 110.321 141.467 109.148 143.12ZM123.335 153.4C122.028 153.4 121.122 153.04 120.615 152.32C120.108 151.573 119.855 150.533 119.855 149.2C119.855 147.28 120.655 145.28 122.255 143.2C123.962 141.013 125.735 139.92 127.575 139.92C128.935 139.92 129.615 140.387 129.615 141.32C129.615 142.467 128.988 143.667 127.735 144.92C125.948 146.733 124.068 147.64 122.095 147.64C121.775 148.467 121.615 149.293 121.615 150.12C121.615 151.027 121.788 151.733 122.135 152.24C122.482 152.747 122.988 153 123.655 153C124.348 153 125.068 152.813 125.815 152.44C126.562 152.04 127.202 151.573 127.735 151.04C128.188 150.587 128.695 149.973 129.255 149.2C129.842 148.4 130.428 147.427 131.015 146.28C131.095 146.147 131.175 146.08 131.255 146.08C131.415 146.08 131.415 146.213 131.255 146.48C130.802 147.387 130.308 148.253 129.775 149.08C129.268 149.907 128.588 150.707 127.735 151.48C127.228 151.987 126.588 152.44 125.815 152.84C125.042 153.213 124.215 153.4 123.335 153.4ZM122.135 147.36C123.602 147.36 125.242 146.573 127.055 145V144.96C127.562 144.533 128.042 143.947 128.495 143.2C129.028 142.373 129.295 141.667 129.295 141.08C129.295 140.653 128.975 140.44 128.335 140.44C127.322 140.44 126.095 141.347 124.655 143.16C123.988 143.96 123.455 144.707 123.055 145.4C122.655 146.093 122.348 146.747 122.135 147.36ZM133.407 153.48C130.713 153.48 129.367 152.2 129.367 149.64C129.367 148.92 129.487 148.147 129.727 147.32V147.36C129.86 146.88 130.113 146.413 130.487 145.96C130.94 145.4 131.353 145.12 131.727 145.12C131.727 145.12 131.767 145.12 131.847 145.12C131.927 145.12 132.06 145.147 132.247 145.2L132.687 144.52C133.06 143.96 133.393 143.4 133.687 142.84C134.007 142.253 134.34 141.68 134.687 141.12C135.673 139.413 136.42 138.493 136.927 138.36C137.087 138.307 137.207 138.28 137.287 138.28C137.687 138.28 137.887 138.427 137.887 138.72C137.887 139.067 137.593 139.28 137.007 139.36C136.473 139.44 136.14 139.507 136.007 139.56C135.793 139.72 135.687 140.067 135.687 140.6C135.687 141.16 136.047 142.107 136.767 143.44C137.487 144.747 137.847 145.907 137.847 146.92C137.847 147.187 137.82 147.44 137.767 147.68C137.74 147.92 137.7 148.173 137.647 148.44C136.927 151.453 135.02 152.96 131.927 152.96C132.54 153.093 133.1 153.16 133.607 153.16C134.54 153.16 135.447 153 136.327 152.68C137.207 152.333 138.02 151.867 138.767 151.28C139.54 150.667 140.247 149.933 140.887 149.08C141.553 148.2 142.127 147.267 142.607 146.28C142.687 146.12 142.767 146.04 142.847 146.04C143.007 146.04 143.02 146.173 142.887 146.44C142.46 147.24 142.007 148 141.527 148.72C141.073 149.413 140.58 150.04 140.047 150.6C139.407 151.24 138.54 151.88 137.447 152.52C136.353 153.16 135.007 153.48 133.407 153.48ZM131.647 152.64C133.007 152.64 134.127 151.613 135.007 149.56C135.727 147.96 136.087 146.347 136.087 144.72C136.087 144.507 136.047 144.227 135.967 143.88C135.913 143.507 135.82 143.067 135.687 142.56C135.58 142.08 135.5 141.667 135.447 141.32C135.393 140.947 135.38 140.627 135.407 140.36C134.9 141.373 134.393 142.293 133.887 143.12C133.38 143.947 132.9 144.693 132.447 145.36C132.58 145.573 132.647 145.787 132.647 146C132.647 146.373 132.5 146.787 132.207 147.24C132.02 147.507 131.7 147.76 131.247 148C130.793 148.24 130.473 148.467 130.287 148.68C129.993 149.107 129.847 149.667 129.847 150.36C129.847 151.88 130.447 152.64 131.647 152.64ZM143.272 153.12C141.378 153.12 140.432 152.187 140.432 150.32C140.432 148.853 140.978 147 142.072 144.76C142.125 144.653 142.378 144.187 142.832 143.36C143.312 142.507 143.992 141.293 144.872 139.72H142.792L142.712 139.64L142.752 139.4L142.792 139.36H145.072L147.952 134.32C148.192 134.427 148.472 134.48 148.792 134.48C149.165 134.48 149.565 134.347 149.992 134.08C150.445 133.84 150.752 133.573 150.912 133.28L151.032 133.32L147.432 139.36H150.192L150.232 139.4V139.64L150.152 139.72H147.232L144.512 144.52C142.885 147.373 142.072 149.573 142.072 151.12C142.072 152.213 142.498 152.76 143.352 152.76C144.685 152.76 146.032 152.013 147.392 150.52C147.765 150.12 148.205 149.52 148.712 148.72C149.218 147.92 149.645 147.16 149.992 146.44C150.045 146.307 150.112 146.267 150.192 146.32C150.298 146.347 150.325 146.427 150.272 146.56C149.872 147.36 149.445 148.12 148.992 148.84C148.565 149.56 148.072 150.227 147.512 150.84C146.125 152.36 144.712 153.12 143.272 153.12ZM147.429 153.64L147.349 153.6C148.949 148.267 151.069 143.133 153.709 138.2C157.549 131.027 161.176 127.44 164.589 127.44C165.842 127.44 166.469 128.053 166.469 129.28C166.469 130.747 165.642 132.427 163.989 134.32C162.602 135.84 161.122 137.067 159.549 138C158.322 138.72 156.909 139.36 155.309 139.92C155.069 140 154.896 140.027 154.789 140C153.962 141.467 153.216 142.893 152.549 144.28C151.909 145.667 151.336 147.027 150.829 148.36C151.949 146.227 153.149 144.427 154.429 142.96C156.269 140.853 158.002 139.8 159.629 139.8C160.962 139.8 161.629 140.28 161.629 141.24C161.629 142.173 160.736 143.92 158.949 146.48C157.376 148.693 156.589 150.453 156.589 151.76C156.589 152.427 156.882 152.76 157.469 152.76C157.922 152.76 158.442 152.613 159.029 152.32C159.616 152.027 160.229 151.547 160.869 150.88C161.696 149.973 162.322 149.133 162.749 148.36C163.202 147.587 163.602 146.88 163.949 146.24C164.029 146.107 164.109 146.053 164.189 146.08C164.269 146.107 164.282 146.187 164.229 146.32C163.829 147.147 163.349 148.013 162.789 148.92C162.256 149.8 161.696 150.547 161.109 151.16C160.362 151.96 159.616 152.507 158.869 152.8C158.149 153.093 157.442 153.24 156.749 153.24C155.336 153.24 154.629 152.56 154.629 151.2C154.629 150 155.096 148.613 156.029 147.04C156.242 146.693 156.562 146.213 156.989 145.6C157.442 144.987 158.002 144.24 158.669 143.36C159.602 142.107 160.069 141.293 160.069 140.92C160.069 140.44 159.762 140.2 159.149 140.2C157.976 140.2 156.576 141.093 154.949 142.88C153.856 144.08 152.842 145.48 151.909 147.08C151.482 147.8 151.042 148.653 150.589 149.64C150.136 150.627 149.656 151.747 149.149 153L149.069 153.04C148.856 152.907 148.656 152.84 148.469 152.84C147.989 152.84 147.642 153.107 147.429 153.64ZM154.989 139.64C155.096 139.64 155.202 139.627 155.309 139.6C155.922 139.467 156.549 139.253 157.189 138.96C157.856 138.667 158.522 138.307 159.189 137.88C159.909 137.4 160.629 136.853 161.349 136.24C162.069 135.6 162.789 134.88 163.509 134.08C165.269 132.16 166.149 130.533 166.149 129.2C166.149 128.267 165.682 127.8 164.749 127.8C163.522 127.8 161.709 129.453 159.309 132.76C158.589 133.773 157.856 134.853 157.109 136C156.389 137.147 155.682 138.36 154.989 139.64ZM166.577 153.4C165.271 153.4 164.364 153.04 163.857 152.32C163.351 151.573 163.097 150.533 163.097 149.2C163.097 147.28 163.897 145.28 165.497 143.2C167.204 141.013 168.977 139.92 170.817 139.92C172.177 139.92 172.857 140.387 172.857 141.32C172.857 142.467 172.231 143.667 170.977 144.92C169.191 146.733 167.311 147.64 165.337 147.64C165.017 148.467 164.857 149.293 164.857 150.12C164.857 151.027 165.031 151.733 165.377 152.24C165.724 152.747 166.231 153 166.897 153C167.591 153 168.311 152.813 169.057 152.44C169.804 152.04 170.444 151.573 170.977 151.04C171.431 150.587 171.937 149.973 172.497 149.2C173.084 148.4 173.671 147.427 174.257 146.28C174.337 146.147 174.417 146.08 174.497 146.08C174.657 146.08 174.657 146.213 174.497 146.48C174.044 147.387 173.551 148.253 173.017 149.08C172.511 149.907 171.831 150.707 170.977 151.48C170.471 151.987 169.831 152.44 169.057 152.84C168.284 153.213 167.457 153.4 166.577 153.4ZM165.377 147.36C166.844 147.36 168.484 146.573 170.297 145V144.96C170.804 144.533 171.284 143.947 171.737 143.2C172.271 142.373 172.537 141.667 172.537 141.08C172.537 140.653 172.217 140.44 171.577 140.44C170.564 140.44 169.337 141.347 167.897 143.16C167.231 143.96 166.697 144.707 166.297 145.4C165.897 146.093 165.591 146.747 165.377 147.36ZM178.089 153.16C176.489 153.16 175.689 152.453 175.689 151.04C175.689 149.92 176.129 148.64 177.009 147.2C177.302 146.693 178.115 145.56 179.449 143.8C180.329 142.627 180.769 141.8 180.769 141.32C180.769 140.867 180.395 140.64 179.649 140.64C179.142 140.64 178.582 140.653 177.969 140.68C177.382 140.707 176.902 140.733 176.529 140.76C176.449 141.187 176.329 141.68 176.169 142.24C176.009 142.8 175.822 143.387 175.609 144C175.475 144.373 175.262 144.88 174.969 145.52C174.702 146.16 174.342 146.84 173.889 147.56C173.809 147.667 173.742 147.72 173.689 147.72C173.662 147.72 173.649 147.693 173.649 147.64C173.649 147.507 173.702 147.333 173.809 147.12C174.022 146.747 174.262 146.293 174.529 145.76C174.795 145.2 175.049 144.587 175.289 143.92C175.502 143.333 175.689 142.72 175.849 142.08C176.035 141.413 176.142 140.96 176.169 140.72C175.529 140.32 175.209 139.72 175.209 138.92C175.209 138.013 175.529 137.56 176.169 137.56C176.622 137.56 176.849 137.973 176.849 138.8C176.849 138.987 176.822 139.213 176.769 139.48C176.715 139.747 176.649 140.067 176.569 140.44C176.942 140.413 177.529 140.387 178.329 140.36C179.155 140.307 179.942 140.28 180.689 140.28C182.049 140.28 182.729 140.693 182.729 141.52C182.729 142.4 181.675 144.213 179.569 146.96C179.115 147.627 178.609 148.387 178.049 149.24C177.515 150.067 177.249 150.92 177.249 151.8C177.249 152.04 177.302 152.267 177.409 152.48C177.515 152.693 177.742 152.8 178.089 152.8C179.235 152.8 180.502 152.107 181.889 150.72C182.582 150.027 183.222 149.28 183.809 148.48C184.395 147.68 184.929 146.787 185.409 145.8C185.515 145.587 185.609 145.48 185.689 145.48C185.742 145.48 185.769 145.52 185.769 145.6C185.769 145.733 185.729 145.88 185.649 146.04C185.195 146.973 184.649 147.88 184.009 148.76C183.369 149.613 182.662 150.427 181.889 151.2C180.582 152.507 179.315 153.16 178.089 153.16ZM191.386 137.8C190.533 137.8 190.106 137.387 190.106 136.56C190.106 135.653 190.52 135.2 191.346 135.2C192.2 135.2 192.626 135.613 192.626 136.44C192.626 137.347 192.213 137.8 191.386 137.8ZM186.666 153.4C184.906 153.4 184.026 152.427 184.026 150.48C184.026 149.067 184.44 147.573 185.266 146L188.266 140.12H188.386C188.466 140.227 188.626 140.28 188.866 140.28C189.373 140.28 190.04 139.973 190.866 139.36L190.946 139.44L187.546 146.04C186.133 148.76 185.426 150.653 185.426 151.72C185.426 152.2 185.56 152.533 185.826 152.72C186.093 152.907 186.4 153 186.746 153C187.12 153 187.48 152.92 187.826 152.76C188.2 152.6 188.52 152.427 188.786 152.24C189.506 151.68 190.106 151.04 190.586 150.32C191.093 149.573 191.533 148.827 191.906 148.08C192.28 147.333 192.613 146.707 192.906 146.2C192.986 146.067 193.066 146.027 193.146 146.08C193.226 146.107 193.24 146.187 193.186 146.32C192.653 147.44 192.066 148.587 191.426 149.76C190.786 150.933 189.973 151.867 188.986 152.56C188.64 152.8 188.266 153 187.866 153.16C187.493 153.32 187.093 153.4 186.666 153.4ZM195.482 153.4C194.442 153.4 193.588 153.107 192.922 152.52C192.255 151.933 191.922 151.013 191.922 149.76C191.922 148.747 192.122 147.68 192.522 146.56C192.922 145.44 193.522 144.347 194.322 143.28C196.055 140.987 197.855 139.84 199.722 139.84C201.455 139.84 202.322 140.627 202.322 142.2C202.322 142.787 202.135 143.427 201.762 144.12C201.308 144.893 200.815 145.28 200.282 145.28C199.882 145.28 199.682 145.12 199.682 144.8C199.682 144.453 200.042 144.027 200.762 143.52C201.482 142.987 201.842 142.387 201.842 141.72C201.842 140.813 201.375 140.36 200.442 140.36C199.455 140.36 198.362 141.08 197.162 142.52C196.308 143.587 195.588 144.733 195.002 145.96C194.735 146.493 194.468 147.2 194.202 148.08C193.935 148.933 193.802 149.76 193.802 150.56C193.802 151.227 193.948 151.8 194.242 152.28C194.535 152.76 195.055 153 195.802 153C196.495 153 197.215 152.813 197.962 152.44C198.708 152.04 199.348 151.573 199.882 151.04C200.335 150.587 200.842 149.973 201.402 149.2C201.988 148.4 202.575 147.427 203.162 146.28C203.242 146.147 203.322 146.08 203.402 146.08C203.562 146.08 203.562 146.213 203.402 146.48C202.948 147.387 202.455 148.253 201.922 149.08C201.415 149.907 200.735 150.707 199.882 151.48C199.375 151.987 198.735 152.44 197.962 152.84C197.188 153.213 196.362 153.4 195.482 153.4ZM205.555 153.48C202.862 153.48 201.515 152.2 201.515 149.64C201.515 148.92 201.635 148.147 201.875 147.32V147.36C202.008 146.88 202.262 146.413 202.635 145.96C203.088 145.4 203.502 145.12 203.875 145.12C203.875 145.12 203.915 145.12 203.995 145.12C204.075 145.12 204.208 145.147 204.395 145.2L204.835 144.52C205.208 143.96 205.542 143.4 205.835 142.84C206.155 142.253 206.488 141.68 206.835 141.12C207.822 139.413 208.568 138.493 209.075 138.36C209.235 138.307 209.355 138.28 209.435 138.28C209.835 138.28 210.035 138.427 210.035 138.72C210.035 139.067 209.742 139.28 209.155 139.36C208.622 139.44 208.288 139.507 208.155 139.56C207.942 139.72 207.835 140.067 207.835 140.6C207.835 141.16 208.195 142.107 208.915 143.44C209.635 144.747 209.995 145.907 209.995 146.92C209.995 147.187 209.968 147.44 209.915 147.68C209.888 147.92 209.848 148.173 209.795 148.44C209.075 151.453 207.168 152.96 204.075 152.96C204.688 153.093 205.248 153.16 205.755 153.16C206.688 153.16 207.595 153 208.475 152.68C209.355 152.333 210.168 151.867 210.915 151.28C211.688 150.667 212.395 149.933 213.035 149.08C213.702 148.2 214.275 147.267 214.755 146.28C214.835 146.12 214.915 146.04 214.995 146.04C215.155 146.04 215.168 146.173 215.035 146.44C214.608 147.24 214.155 148 213.675 148.72C213.222 149.413 212.728 150.04 212.195 150.6C211.555 151.24 210.688 151.88 209.595 152.52C208.502 153.16 207.155 153.48 205.555 153.48ZM203.795 152.64C205.155 152.64 206.275 151.613 207.155 149.56C207.875 147.96 208.235 146.347 208.235 144.72C208.235 144.507 208.195 144.227 208.115 143.88C208.062 143.507 207.968 143.067 207.835 142.56C207.728 142.08 207.648 141.667 207.595 141.32C207.542 140.947 207.528 140.627 207.555 140.36C207.048 141.373 206.542 142.293 206.035 143.12C205.528 143.947 205.048 144.693 204.595 145.36C204.728 145.573 204.795 145.787 204.795 146C204.795 146.373 204.648 146.787 204.355 147.24C204.168 147.507 203.848 147.76 203.395 148C202.942 148.24 202.622 148.467 202.435 148.68C202.142 149.107 201.995 149.667 201.995 150.36C201.995 151.88 202.595 152.64 203.795 152.64Z" fill="#AB7C6D"/>
<circle cx="137.5" cy="121.5" r="116" stroke="#BD9E65"/>
<circle cx="141.5" cy="121.5" r="116" stroke="#BD9E65"/>
</g>
<defs>
<filter id="filter0_d_5_25" x="0" y="1.5" width="258" height="232.5" filterUnits="userSpaceOnUse" color-interpolation-filters="sRGB">
<feFlood flood-opacity="0" result="BackgroundImageFix"/>
<feColorMatrix in="SourceAlpha" type="matrix" values="0 0 0 0 0 0 0 0 0 0 0 0 0 0 0 0 0 0 127 0" result="hardAlpha"/>
<feOffset dx="1" dy="1"/>
<feGaussianBlur stdDeviation="2"/>
<feComposite in2="hardAlpha" operator="out"/>
<feColorMatrix type="matrix" values="0 0 0 0 0.992157 0 0 0 0 0.921569 0 0 0 0 0.913725 0 0 0 1 0"/>
<feBlend mode="normal" in2="BackgroundImageFix" result="effect1_dropShadow_5_25"/>
<feBlend mode="normal" in="SourceGraphic" in2="effect1_dropShadow_5_25" result="shape"/>
</filter>
<linearGradient id="paint0_linear_5_25" x1="-8.07594" y1="187.646" x2="271.508" y2="42.6648" gradientUnits="userSpaceOnUse">
<stop stop-color="#FCE8E7" stop-opacity="0"/>
<stop offset="0.214638" stop-color="#FCE8E7"/>
</linearGradient>
<clipPath id="clip0_5_25">
<rect width="258" height="236" fill="white" transform="translate(0 2)"/>
</clipPath>
</defs>
</svg>
